<svg id="Слой_1" data-name="Слой 1" xmlns="http://www.w3.org/2000/svg" viewBox="0 0 45.67 51"><defs><style>.cls-1{fill:#87949e;}</style></defs><title>1481836324_genius</title><g id="Layer_1" data-name="Layer 1"><path class="cls-1" d="M32,57.5c-6.33,0-11.1-11-11.1-25.5S25.67,6.5,32,6.5s11.1,11,11.1,25.5S38.33,57.5,32,57.5Zm0-48c-3.83,0-8.1,9.24-8.1,22.5S28.17,54.5,32,54.5s8.1-9.24,8.1-22.5S35.83,9.5,32,9.5Z" transform="translate(-9.17 -6.5)"/><path class="cls-1" d="M17.63,48.1c-4.78,0-6.84-1.82-7.72-3.35-3.16-5.48,3.94-15.09,16.53-22.36,7-4.06,14.48-6.49,19.92-6.49,4.78,0,6.83,1.82,7.72,3.35,3.16,5.48-3.94,15.09-16.53,22.36C30.51,45.67,23.07,48.1,17.63,48.1ZM46.37,18.9C41.44,18.9,34.55,21.17,28,25,16.47,31.62,10.6,39.93,12.51,43.25,13.2,44.44,15,45.1,17.63,45.1c4.93,0,11.82-2.27,18.42-6.08C47.53,32.38,53.4,24.07,51.49,20.75,50.8,19.56,49,18.9,46.37,18.9Z" transform="translate(-9.17 -6.5)"/><path class="cls-1" d="M17.63,48.1c-4.78,0-6.84-1.82-7.72-3.35-3.16-5.48,3.94-15.09,16.53-22.36,7-4.06,14.48-6.49,19.92-6.49,4.78,0,6.83,1.82,7.72,3.35,3.16,5.48-3.94,15.09-16.53,22.36C30.51,45.67,23.07,48.1,17.63,48.1ZM46.37,18.9C41.44,18.9,34.55,21.17,28,25,16.47,31.62,10.6,39.93,12.51,43.25,13.2,44.44,15,45.1,17.63,45.1c4.93,0,11.82-2.27,18.42-6.08C47.53,32.38,53.4,24.07,51.49,20.75,50.8,19.56,49,18.9,46.37,18.9Z" transform="translate(-9.17 -6.5)"/><path class="cls-1" d="M46.37,48.1c-5.44,0-12.88-2.42-19.92-6.49C13.86,34.35,6.75,24.73,9.92,19.25c0.88-1.53,2.94-3.35,7.72-3.35,5.44,0,12.88,2.42,19.92,6.49,12.59,7.27,19.7,16.88,16.53,22.36C53.2,46.28,51.15,48.1,46.37,48.1ZM17.63,18.9c-2.61,0-4.43.66-5.12,1.85C10.6,24.07,16.47,32.39,28,39c6.6,3.81,13.48,6.08,18.42,6.08,2.61,0,4.43-.66,5.12-1.85C53.4,39.93,47.53,31.61,36,25,29.45,21.17,22.57,18.9,17.63,18.9Z" transform="translate(-9.17 -6.5)"/><circle class="cls-1" cx="22.83" cy="25.5" r="3"/></g></svg>